<svg width="57" height="56" viewBox="0 0 57 56" fill="none" xmlns="http://www.w3.org/2000/svg">
<path fill-rule="evenodd" clip-rule="evenodd" d="M28.375 0.25C12.8359 0.25 0.25 12.8359 0.25 28.375C0.25 40.8203 8.30078 51.332 19.4805 55.0586C20.8867 55.3047 21.4141 54.4609 21.4141 53.7227C21.4141 53.0547 21.3789 50.8398 21.3789 48.4844C14.3125 49.7852 12.4844 46.7617 11.9219 45.1797C11.6055 44.3711 10.2344 41.875 9.03906 41.207C8.05469 40.6797 6.64844 39.3789 9.00391 39.3438C11.2188 39.3086 12.8008 41.3828 13.3281 42.2266C15.8594 46.4805 19.9023 45.2852 21.5195 44.5469C21.7656 42.7188 22.5039 41.4883 23.3125 40.7852C17.0547 40.082 10.5156 37.6562 10.5156 26.8984C10.5156 23.8398 11.6055 21.3086 13.3984 19.3398C13.1172 18.6367 12.1328 15.7539 13.6797 11.8867C13.6797 11.8867 16.0352 11.1484 21.4141 14.7695C23.6641 14.1367 26.0547 13.8203 28.4453 13.8203C30.8359 13.8203 33.2266 14.1367 35.4766 14.7695C40.8555 11.1133 43.2109 11.8867 43.2109 11.8867C44.7578 15.7539 43.7734 18.6367 43.4922 19.3398C45.2852 21.3086 46.375 23.8047 46.375 26.8984C46.375 37.6914 39.8008 40.082 33.543 40.7852C34.5625 41.6641 35.4414 43.3516 35.4414 45.9883C35.4414 49.75 35.4062 52.7734 35.4062 53.7227C35.4062 54.4609 35.9336 55.3398 37.3398 55.0586C48.4492 51.332 56.5 40.7852 56.5 28.375C56.5 12.8359 43.9141 0.25 28.375 0.25Z" fill="white"/>
</svg>
